<svg fill="none" height="24" viewBox="0 0 24 24" width="24" xmlns="http://www.w3.org/2000/svg"><g stroke="#000000" stroke-linecap="round" stroke-linejoin="round" stroke-width="1.5"><path d="m9.5 13.75c0 .97.75 1.75 1.67 1.75h1.88c.8 0 1.45-.68 1.45-1.53 0-.91-.4-1.24-.99-1.45l-3.01-1.05c-.59-.21-.98999-.53-.98999-1.45 0-.84001.64999-1.53001 1.44999-1.53001h1.88c.92 0 1.67.78 1.67 1.75001"/><path d="m12 7.5v9"/><path d="m22 12c0 5.52-4.48 10-10 10s-10-4.48-10-10 4.48-10 10-10"/><path d="m22 6v-4h-4"/><path d="m17 7 5-5"/></g></svg>